[img]http://img801.imageshack.us/img801/7441/blankm.png[/img]




[img]http://img64.imageshack.us/img64/1479/mxmgg.jpg[/img]

[quote]
Format                           : MPEG-4
Format profile                   : Base Media
Codec ID                         : isom
File size                        : 2.15 GiB
Duration                         : 1h 47mn
Overall bit rate                 : 2 845 Kbps
Writing application              : Lavf53.0.3

Video
Format                           : AVC
Format/Info                      : Advanced Video Codec
Format profile                   : High@L4.1
Format settings, CABAC           : Yes
Format settings, ReFrames        : 3 frames
Format settings, GOP             : M=4, N=23
Codec ID                         : avc1
Codec ID/Info                    : Advanced Video Coding
Duration                         : 1h 47mn
Bit rate mode                    : Variable
Bit rate                         : 2 456 Kbps
Width                            : 1 280 pixels
Height                           : 536 pixels
Display aspect ratio             : 2.35:1
Frame rate mode                  : Constant
Frame rate                       : 23.976 fps
Color space                      : YUV
Chroma subsampling               : 4:2:0
Bit depth                        : 8 bits
Scan type                        : Progressive
Bits/(Pixel*Frame)               : 0.149
Stream size                      : 1.85 GiB (86%)
Writing library                  : x264 core 115 r1947M b5a8ad7
Encoding settings                : cabac=1 / ref=3 / deblock=1:-1:-1 / analyse=0x3:0x133 / me=dia / subme=1 / psy=1 / psy_rd=1.00:0.15 / mixed_ref=1 / me_range=16 / chroma_me=1 / trellis=0 / 8x8dct=1 / cqm=0 / deadzone=21,11 / fast_pskip=1 / chroma_qp_offset=0 / threads=6 / sliced_threads=0 / nr=0 / decimate=1 / interlaced=0 / bluray_compat=0 / constrained_intra=0 / bframes=3 / b_pyramid=1 / b_adapt=0 / b_bias=0 / direct=3 / weightb=1 / open_gop=0 / weightp=0 / keyint=230 / keyint_min=23 / scenecut=40 / intra_refresh=0 / rc_lookahead=40 / rc=2pass / mbtree=1 / bitrate=2456 / ratetol=1.0 / qcomp=0.60 / qpmin=10 / qpmax=51 / qpstep=4 / cplxblur=20.0 / qblur=0.5 / vbv_maxrate=31250 / vbv_bufsize=31250 / nal_hrd=none / ip_ratio=1.40 / aq=1:1.00
Language                         : English

Audio
Format                           : AAC
Format/Info                      : Advanced Audio Codec
Format profile                   : LC
Codec ID                         : 40
Duration                         : 1h 47mn
Bit rate mode                    : Constant
Bit rate                         : 384 Kbps
Channel(s)                       : 6 channels
Channel positions                : Front: L C R, Side: L R, LFE
Sampling rate                    : 48.0 KHz
Compression mode                 : Lossy
Stream size                      : 296 MiB (13%)
Language                         : English


[/quote]


Screens :
[img]http://img546.imageshack.us/img546/1586/screenshot2011042718h53.png[/img]

[img]http://img835.imageshack.us/img835/7229/screenshot2011042718h57.png[/img]

[img]http://img16.imageshack.us/img16/6618/screenshot2011042719h04.png[/img]



[quote]
# Latest codecs used to deliver Top Quality Releases
# Seeded at high speeds to grant super Download speeds
# All   PS3, Popcorn Hour, WD & XBOX 360 Compatible
[/quote]

[code]
Seedboxes provided by   http://www.chociz.com/
A seedbox is a private dedicated server used for the uploading and downloading of digital files.
Speed - You can sit back, relax and watch in amazement at how fast the torrents finish. 
Secure and Safe - With a seedbox, you don’t even need to use a BitTorrent client on your home computer!
Use Private Trackers -  You can register @ Private Trackers and seed like Hell!

Get a Cheap Seedbox choosing for your taste - [url]http://www.chociz.com/whmcs/cart.php[/url]
[/code]

